<svg id="svg" version="1.1" width="500" height="500" xmlns="http://www.w3.org/2000/svg" xmlns:xlink="http://www.w3.org/1999/xlink" style="display: block;"><g id="svgg"><path id="path0" d="M239.809 46.166 C 240.804 46.357,242.244 46.350,243.009 46.150 C 243.774 45.949,242.960 45.793,241.200 45.802 C 239.440 45.811,238.814 45.974,239.809 46.166 M248.400 47.200 C 248.112 47.665,248.909 48.000,250.306 48.000 C 251.626 48.000,252.928 48.360,253.200 48.800 C 253.472 49.240,254.912 49.600,256.400 49.600 C 257.888 49.600,259.328 49.240,259.600 48.800 C 259.888 48.335,259.091 48.000,257.694 48.000 C 256.374 48.000,255.072 47.640,254.800 47.200 C 254.528 46.760,253.088 46.400,251.600 46.400 C 250.112 46.400,248.672 46.760,248.400 47.200 M261.224 48.761 C 260.325 50.216,261.620 51.226,263.711 50.701 C 265.524 50.245,267.028 50.675,271.389 52.893 C 272.153 53.282,273.662 53.600,274.742 53.600 C 275.822 53.600,276.943 53.983,277.232 54.452 C 277.522 54.921,278.758 55.199,279.979 55.071 C 281.201 54.943,282.769 55.311,283.465 55.888 C 284.161 56.465,285.102 56.708,285.556 56.427 C 286.048 56.123,286.190 56.417,285.906 57.155 C 285.521 58.160,285.882 58.304,287.819 57.916 C 289.204 57.639,290.434 57.808,290.750 58.319 C 291.050 58.804,292.173 59.200,293.247 59.200 C 294.321 59.200,295.200 59.560,295.200 60.000 C 295.200 60.440,295.740 60.800,296.400 60.800 C 297.060 60.800,297.600 61.120,297.600 61.511 C 297.600 61.902,298.880 62.462,300.445 62.756 C 302.009 63.049,303.989 63.989,304.845 64.845 C 305.700 65.700,306.773 66.400,307.228 66.400 C 308.401 66.400,312.095 68.876,314.092 71.000 C 315.022 71.990,316.192 72.800,316.692 72.800 C 317.191 72.800,317.600 73.175,317.600 73.633 C 317.600 74.092,318.350 75.262,319.268 76.233 C 322.186 79.325,325.105 84.976,325.731 88.747 C 326.065 90.756,326.725 94.560,327.200 97.200 C 328.070 102.047,330.210 115.635,330.916 120.800 C 331.127 122.340,332.029 128.640,332.922 134.800 C 334.808 147.812,336.564 160.453,337.588 168.400 C 337.986 171.480,338.699 176.340,339.173 179.200 C 339.755 182.709,339.965 206.639,339.818 252.800 L 339.600 321.200 328.832 321.424 C 316.082 321.690,317.088 320.708,316.426 333.529 C 315.650 348.533,314.919 351.442,310.971 355.236 C 302.915 362.976,288.023 363.592,280.177 356.507 C 278.649 355.128,277.084 354.090,276.700 354.200 C 276.315 354.310,276.000 353.839,276.000 353.153 C 276.000 352.467,275.640 352.128,275.200 352.400 C 273.441 353.487,275.436 359.374,278.881 363.263 C 279.497 363.958,280.000 364.948,280.000 365.463 C 280.000 365.978,280.398 366.400,280.885 366.400 C 281.371 366.400,282.839 367.300,284.146 368.400 C 285.453 369.500,287.323 370.400,288.301 370.400 C 289.280 370.400,290.434 370.754,290.867 371.187 C 292.586 372.906,308.053 372.707,313.512 370.896 C 318.747 369.159,326.400 363.372,326.400 361.150 C 326.400 360.544,327.080 358.838,327.911 357.359 C 329.079 355.278,329.555 352.173,330.012 343.655 L 330.602 332.640 332.822 333.084 C 334.043 333.329,336.968 333.222,339.321 332.848 C 341.675 332.474,344.152 332.461,344.826 332.819 C 345.615 333.238,346.755 332.929,348.026 331.953 C 349.112 331.118,350.360 330.425,350.800 330.412 C 353.472 330.331,353.600 326.908,353.600 255.601 C 353.600 206.449,353.340 184.860,352.741 184.261 C 352.268 183.788,351.849 181.286,351.809 178.701 C 351.770 176.115,351.415 173.577,351.020 173.060 C 350.626 172.543,350.091 168.841,349.832 164.833 C 349.572 160.825,349.054 157.357,348.680 157.126 C 348.306 156.895,348.000 154.639,348.000 152.113 C 348.000 149.587,347.608 147.128,347.129 146.649 C 346.651 146.171,346.058 142.127,345.812 137.664 C 345.566 133.201,345.058 129.359,344.682 129.127 C 344.307 128.895,344.000 126.903,344.000 124.700 C 344.000 122.497,343.658 120.056,343.240 119.274 C 342.822 118.493,342.274 115.059,342.023 111.642 C 341.771 108.226,341.213 104.773,340.783 103.968 C 340.352 103.163,340.000 101.527,340.000 100.332 C 340.000 96.339,337.430 85.217,336.178 83.794 C 334.922 82.366,333.305 79.772,332.317 77.600 C 331.461 75.718,326.176 70.400,325.162 70.400 C 324.659 70.400,323.607 69.692,322.824 68.827 C 321.368 67.217,310.537 61.600,308.891 61.600 C 308.389 61.600,307.353 61.270,306.589 60.867 C 303.439 59.206,299.280 57.600,298.126 57.600 C 297.449 57.600,296.672 57.240,296.400 56.800 C 296.128 56.360,295.068 56.000,294.044 56.000 C 293.020 56.000,291.152 55.465,289.891 54.810 C 288.631 54.156,286.967 53.821,286.194 54.066 C 285.421 54.311,283.656 53.946,282.271 53.256 C 280.887 52.565,278.751 52.000,277.524 52.000 C 276.298 52.000,275.103 51.691,274.870 51.313 C 274.636 50.935,272.020 50.377,269.057 50.074 C 266.094 49.770,263.236 49.162,262.706 48.722 C 262.061 48.186,261.571 48.199,261.224 48.761 M56.521 322.187 C 53.445 322.506,53.442 322.509,53.989 325.453 C 54.781 329.726,60.652 334.868,62.559 332.961 C 62.925 332.595,65.468 332.567,68.212 332.899 C 76.697 333.923,78.400 332.627,78.400 325.148 L 78.400 321.600 69.000 321.734 C 63.830 321.808,58.214 322.012,56.521 322.187 M123.891 322.164 C 121.185 322.581,120.800 324.446,120.800 337.157 C 120.800 351.611,117.168 357.667,106.707 360.659 C 100.367 362.471,88.878 360.982,87.012 358.106 C 86.689 357.608,86.419 357.483,86.412 357.830 C 86.406 358.176,84.888 357.006,83.039 355.230 C 78.433 350.804,77.525 352.132,80.682 358.678 C 83.417 364.349,89.534 370.386,92.553 370.395 C 93.517 370.398,94.528 370.760,94.800 371.200 C 97.362 375.345,126.541 370.292,127.798 365.485 C 128.012 364.668,128.685 364.000,129.293 364.000 C 129.902 364.000,130.400 363.393,130.400 362.652 C 130.400 361.910,131.191 360.461,132.159 359.431 C 133.770 357.716,133.946 356.563,134.255 345.671 L 134.593 333.784 145.896 333.314 C 152.113 333.056,183.244 332.925,215.076 333.022 C 246.908 333.120,273.135 332.906,273.357 332.546 C 273.580 332.186,273.950 329.810,274.181 327.267 L 274.600 322.642 271.500 322.130 C 268.195 321.584,127.450 321.617,123.891 322.164 " stroke="none" fill="#000000" fill-rule="evenodd"></path><path id="path1" d="M160.400 70.392 C 132.980 71.115,135.512 70.888,133.600 72.800 C 129.854 76.546,132.720 83.312,138.512 84.399 C 146.032 85.809,258.753 84.432,261.009 82.902 C 264.428 80.584,264.939 75.453,262.040 72.555 C 259.936 70.450,203.625 69.252,160.400 70.392 M100.237 103.308 C 96.614 105.069,94.209 108.370,93.312 112.813 C 91.561 121.486,88.996 136.921,87.199 149.600 C 86.794 152.460,85.897 158.760,85.206 163.600 C 84.515 168.440,83.770 174.020,83.550 176.000 C 83.330 177.980,82.760 182.158,82.282 185.285 C 81.509 190.344,81.574 191.216,82.870 193.195 C 86.193 198.266,80.069 197.977,189.568 198.232 C 307.016 198.507,312.800 198.253,312.800 192.829 C 312.800 191.985,313.160 191.072,313.600 190.800 C 314.602 190.181,314.634 185.505,313.663 181.693 C 313.258 180.102,312.339 174.660,311.621 169.600 C 310.903 164.540,309.984 158.420,309.578 156.000 C 309.172 153.580,308.282 147.820,307.600 143.200 C 304.965 125.348,302.392 111.954,300.992 108.800 C 297.893 101.817,302.543 102.127,197.200 101.886 C 104.340 101.674,103.573 101.686,100.237 103.308 M95.000 245.350 C 93.350 245.541,92.000 246.035,92.000 246.448 C 92.000 246.862,91.535 247.200,90.967 247.200 C 89.478 247.200,83.200 253.815,83.200 255.383 C 83.200 256.110,82.840 256.928,82.400 257.200 C 77.997 259.921,86.380 276.800,92.135 276.800 C 92.889 276.800,93.728 277.160,94.000 277.600 C 95.677 280.314,108.774 277.982,113.509 274.126 C 117.774 270.653,120.928 256.443,117.675 255.358 C 117.194 255.198,116.800 254.625,116.800 254.085 C 116.800 248.941,104.967 244.200,95.000 245.350 M292.000 245.379 C 275.584 247.119,271.391 268.759,286.000 276.347 C 293.568 280.278,304.545 278.555,309.790 272.613 C 313.365 268.563,315.769 259.341,313.600 258.000 C 313.160 257.728,312.800 256.949,312.800 256.268 C 312.800 250.431,301.271 244.395,292.000 245.379 " stroke="none" fill="#ffffff" fill-rule="evenodd"></path><path id="path2" d="M310.080 68.678 C 322.820 77.980,325.566 85.980,330.441 128.000 C 330.824 131.300,331.509 137.060,331.963 140.800 C 333.102 150.190,333.068 153.388,331.840 152.160 C 330.679 150.999,327.200 150.879,327.200 152.000 C 327.200 152.440,326.150 152.800,324.867 152.800 C 323.583 152.800,322.413 153.148,322.267 153.572 C 322.120 153.997,319.989 154.580,317.531 154.867 L 313.061 155.390 312.149 151.895 C 311.648 149.973,311.076 147.500,310.878 146.400 C 310.679 145.300,310.714 147.100,310.955 150.400 C 311.195 153.700,311.666 156.580,312.001 156.800 C 312.335 157.020,312.872 161.340,313.193 166.400 C 313.514 171.460,314.099 175.999,314.493 176.487 C 318.035 180.876,314.798 195.689,309.826 197.847 C 306.773 199.171,243.916 200.451,156.800 200.962 C 139.548 201.064,132.949 201.288,139.200 201.562 C 148.237 201.958,148.739 202.054,144.413 202.562 C 141.780 202.870,139.500 203.500,139.346 203.962 C 139.192 204.423,138.017 204.800,136.733 204.800 C 135.450 204.800,134.400 205.123,134.400 205.519 C 134.400 205.914,131.880 206.491,128.800 206.800 C 125.720 207.109,123.200 207.686,123.200 208.081 C 123.200 208.477,122.300 208.800,121.200 208.800 C 120.100 208.800,119.200 209.131,119.200 209.536 C 119.200 209.941,116.860 210.523,114.000 210.830 C 111.140 211.136,108.800 211.704,108.800 212.093 C 108.800 212.482,107.900 212.800,106.800 212.800 C 105.700 212.800,104.800 213.118,104.800 213.507 C 104.800 213.896,102.460 214.464,99.600 214.770 C 96.740 215.077,94.400 215.659,94.400 216.064 C 94.400 216.469,93.140 216.800,91.600 216.800 C 90.060 216.800,88.800 217.142,88.800 217.560 C 88.800 217.978,86.640 218.565,84.000 218.864 C 81.360 219.162,79.200 219.720,79.200 220.103 C 79.200 220.486,78.300 220.800,77.200 220.800 C 76.100 220.800,75.200 221.134,75.200 221.542 C 75.200 221.951,73.220 222.532,70.800 222.835 C 68.380 223.137,66.400 223.703,66.400 224.092 C 66.400 224.481,65.140 224.800,63.600 224.800 C 62.060 224.800,60.800 225.160,60.800 225.600 C 60.800 226.040,60.260 226.400,59.600 226.400 C 58.940 226.400,58.373 227.030,58.339 227.800 C 58.264 229.537,56.208 224.338,55.888 221.600 C 55.440 217.776,54.776 250.217,54.574 285.800 L 54.370 321.600 66.260 321.600 L 78.150 321.600 78.646 335.390 C 78.946 343.760,79.467 349.289,79.971 349.457 C 80.427 349.609,80.800 350.423,80.800 351.267 C 80.800 352.110,81.160 352.800,81.600 352.800 C 82.040 352.800,82.400 353.160,82.400 353.600 C 82.400 354.638,85.362 357.600,86.400 357.600 C 86.840 357.600,87.200 357.905,87.200 358.278 C 87.200 360.748,100.654 362.389,106.707 360.659 C 117.492 357.575,120.258 352.709,120.806 335.860 C 121.030 328.963,121.510 323.023,121.873 322.660 C 122.639 321.893,263.965 321.269,270.135 322.006 L 274.269 322.499 274.535 336.584 C 274.730 346.947,275.064 350.756,275.800 351.001 C 276.350 351.184,276.800 351.786,276.800 352.338 C 276.800 358.646,293.880 363.568,303.404 360.005 C 313.362 356.279,315.471 351.989,316.426 333.529 C 317.088 320.708,316.082 321.690,328.832 321.424 L 339.600 321.200 339.818 252.800 C 339.965 206.639,339.755 182.709,339.173 179.200 C 338.699 176.340,337.986 171.480,337.588 168.400 C 336.564 160.453,334.808 147.812,332.922 134.800 C 332.029 128.640,331.127 122.340,330.916 120.800 C 330.210 115.635,328.070 102.047,327.200 97.200 C 326.725 94.560,326.065 90.756,325.731 88.747 C 325.105 84.976,322.186 79.325,319.268 76.233 C 318.350 75.262,317.600 74.092,317.600 73.633 C 317.600 73.175,317.191 72.800,316.692 72.800 C 316.192 72.800,315.022 71.990,314.092 71.000 C 312.311 69.106,308.439 66.400,307.508 66.400 C 307.207 66.400,308.364 67.425,310.080 68.678 M92.965 199.792 C 95.916 199.946,100.956 199.947,104.165 199.795 C 107.374 199.642,104.960 199.517,98.800 199.516 C 92.640 199.514,90.014 199.639,92.965 199.792 M106.789 244.166 C 108.775 244.697,110.400 245.417,110.400 245.766 C 110.400 246.115,110.909 246.400,111.532 246.400 C 113.330 246.400,118.703 253.086,119.800 256.689 C 125.492 275.390,100.081 288.109,84.948 274.134 C 80.788 270.292,78.980 259.186,81.722 254.313 C 83.357 251.407,88.192 246.400,89.362 246.400 C 89.933 246.400,90.400 246.114,90.400 245.765 C 90.400 243.661,101.025 242.624,106.789 244.166 M302.684 244.854 C 312.513 247.620,318.125 260.083,313.669 269.250 C 305.937 285.154,279.482 282.775,275.971 265.859 C 272.863 250.888,286.374 240.264,302.684 244.854 " stroke="none" fill="#003380" fill-rule="evenodd"></path><path id="path3" d="M172.000 45.600 C 172.000 46.054,169.488 46.429,166.200 46.468 C 163.010 46.505,158.240 46.879,155.600 47.299 C 152.960 47.719,149.360 48.269,147.600 48.521 C 145.840 48.774,144.040 49.257,143.600 49.595 C 143.160 49.933,139.650 50.465,135.800 50.777 C 131.950 51.089,128.800 51.671,128.800 52.072 C 128.800 52.472,127.900 52.800,126.800 52.800 C 125.700 52.800,124.800 53.118,124.800 53.506 C 124.800 53.894,122.100 54.465,118.800 54.774 C 115.500 55.084,112.800 55.666,112.800 56.068 C 112.800 56.471,111.900 56.800,110.800 56.800 C 109.700 56.800,108.800 57.126,108.800 57.525 C 108.800 57.924,107.000 58.497,104.800 58.800 C 102.600 59.103,100.800 59.676,100.800 60.075 C 100.800 60.474,100.260 60.800,99.600 60.800 C 98.940 60.800,98.400 61.120,98.400 61.511 C 98.400 61.902,97.140 62.458,95.600 62.747 C 94.060 63.036,92.800 63.616,92.800 64.036 C 92.800 64.456,92.260 64.800,91.600 64.800 C 90.940 64.800,90.400 65.120,90.400 65.511 C 90.400 65.902,89.140 66.458,87.600 66.747 C 86.060 67.036,84.800 67.616,84.800 68.036 C 84.800 68.456,84.398 68.800,83.906 68.800 C 82.913 68.800,76.800 74.662,76.800 75.614 C 76.800 75.945,75.900 77.051,74.800 78.070 C 73.700 79.090,72.800 80.481,72.800 81.162 C 72.800 81.843,72.444 82.400,72.009 82.400 C 71.575 82.400,70.987 83.848,70.704 85.618 C 70.421 87.387,69.877 89.029,69.495 89.265 C 69.113 89.501,68.800 91.653,68.800 94.047 C 68.800 96.441,68.486 98.400,68.103 98.400 C 67.720 98.400,67.153 101.640,66.843 105.600 C 66.533 109.560,65.947 112.800,65.540 112.800 C 65.133 112.800,64.800 114.785,64.800 117.211 C 64.800 119.637,64.456 122.247,64.036 123.011 C 63.615 123.775,63.042 127.910,62.761 132.200 C 62.480 136.490,61.924 140.000,61.525 140.000 C 61.126 140.000,60.800 141.959,60.800 144.353 C 60.800 146.747,60.487 148.899,60.104 149.136 C 59.721 149.372,59.149 153.892,58.834 159.179 C 58.518 164.466,57.932 168.995,57.530 169.243 C 57.129 169.491,56.800 171.041,56.800 172.687 C 56.800 174.333,56.415 176.065,55.944 176.536 C 54.450 178.030,55.374 222.056,56.982 226.000 C 57.700 227.760,58.313 228.570,58.344 227.800 C 58.375 227.030,58.940 226.400,59.600 226.400 C 60.260 226.400,60.800 226.040,60.800 225.600 C 60.800 225.160,62.060 224.800,63.600 224.800 C 65.140 224.800,66.400 224.481,66.400 224.092 C 66.400 223.703,68.380 223.137,70.800 222.835 C 73.220 222.532,75.200 221.951,75.200 221.542 C 75.200 221.134,76.100 220.800,77.200 220.800 C 78.300 220.800,79.200 220.486,79.200 220.103 C 79.200 219.720,81.360 219.162,84.000 218.864 C 86.640 218.565,88.800 217.978,88.800 217.560 C 88.800 217.142,90.060 216.800,91.600 216.800 C 93.140 216.800,94.400 216.469,94.400 216.064 C 94.400 215.659,96.740 215.077,99.600 214.770 C 102.460 214.464,104.800 213.896,104.800 213.507 C 104.800 213.118,105.700 212.800,106.800 212.800 C 107.900 212.800,108.800 212.482,108.800 212.093 C 108.800 211.704,111.140 211.136,114.000 210.830 C 116.860 210.523,119.200 209.941,119.200 209.536 C 119.200 209.131,120.100 208.800,121.200 208.800 C 122.300 208.800,123.200 208.477,123.200 208.081 C 123.200 207.686,125.720 207.109,128.800 206.800 C 131.880 206.491,134.400 205.914,134.400 205.519 C 134.400 205.123,135.450 204.800,136.733 204.800 C 138.017 204.800,139.192 204.423,139.346 203.962 C 139.500 203.500,141.780 202.870,144.413 202.562 C 148.739 202.054,148.237 201.958,139.200 201.562 C 132.942 201.288,139.514 201.064,156.760 200.962 C 283.141 200.219,313.600 199.092,313.600 195.160 C 313.600 194.716,312.491 195.173,311.135 196.176 C 307.709 198.711,178.746 200.190,107.851 198.507 L 86.502 198.000 83.960 195.600 L 81.418 193.200 81.883 184.800 C 82.455 174.471,88.540 131.800,91.694 116.000 C 93.830 105.301,97.087 102.073,106.620 101.208 C 122.947 99.726,293.107 101.154,296.400 102.800 C 300.086 104.643,302.861 109.399,303.919 115.687 C 306.715 132.299,308.425 142.705,310.805 157.600 C 313.489 174.398,313.542 174.595,313.074 166.000 C 312.811 161.160,312.325 157.020,311.994 156.800 C 311.663 156.580,311.195 153.700,310.955 150.400 C 310.714 147.100,310.679 145.300,310.878 146.400 C 311.076 147.500,311.648 149.973,312.149 151.895 L 313.061 155.390 317.531 154.867 C 319.989 154.580,322.120 153.997,322.267 153.572 C 322.413 153.148,323.583 152.800,324.867 152.800 C 326.150 152.800,327.200 152.440,327.200 152.000 C 327.200 150.879,330.679 150.999,331.840 152.160 C 333.068 153.388,333.102 150.190,331.963 140.800 C 331.509 137.060,330.824 131.300,330.441 128.000 C 327.917 106.245,324.342 86.304,322.205 82.059 C 318.952 75.598,306.525 64.841,299.950 62.797 C 298.878 62.463,297.100 61.561,296.000 60.792 C 294.900 60.023,292.110 59.136,289.800 58.822 C 287.490 58.507,285.600 58.012,285.600 57.720 C 285.600 56.668,281.022 55.199,276.162 54.691 C 273.433 54.405,271.200 53.863,271.200 53.486 C 271.200 53.109,270.321 52.800,269.247 52.800 C 268.173 52.800,267.092 52.472,266.844 52.072 C 266.597 51.671,263.330 51.088,259.585 50.776 C 255.840 50.464,252.580 49.892,252.341 49.504 C 252.101 49.117,250.199 48.800,248.113 48.800 C 246.027 48.800,243.961 48.441,243.522 48.002 C 243.083 47.563,238.318 46.967,232.932 46.677 C 227.547 46.388,222.953 45.847,222.723 45.475 C 222.111 44.485,172.000 44.608,172.000 45.600 M262.301 71.510 C 266.094 74.943,265.254 81.171,260.616 83.999 C 256.671 86.404,138.699 86.508,134.765 84.109 C 129.357 80.811,129.790 72.717,135.499 70.378 C 139.403 68.779,260.477 69.859,262.301 71.510 M313.959 178.829 C 314.713 183.475,314.748 189.680,314.035 192.000 C 313.522 193.668,313.600 193.828,314.504 192.966 C 315.860 191.672,315.725 177.783,314.344 176.466 C 313.669 175.823,313.570 176.432,313.959 178.829 M104.165 199.795 C 100.956 199.947,95.916 199.946,92.965 199.792 C 90.014 199.639,92.640 199.514,98.800 199.516 C 104.960 199.517,107.374 199.642,104.165 199.795 M93.000 244.278 C 91.570 244.747,90.400 245.400,90.400 245.730 C 90.400 246.059,91.885 245.805,93.701 245.165 C 112.742 238.446,128.427 261.017,113.974 274.339 C 112.028 276.132,110.730 277.600,111.091 277.600 C 114.230 277.600,120.800 266.939,120.800 261.845 C 120.800 256.569,114.698 246.400,111.532 246.400 C 110.909 246.400,110.400 246.115,110.400 245.766 C 110.400 243.682,98.038 242.625,93.000 244.278 M288.800 244.535 C 282.316 246.742,274.108 255.174,276.305 257.371 C 276.497 257.563,276.909 256.883,277.220 255.860 C 278.659 251.130,283.127 247.246,289.600 245.097 C 291.140 244.586,291.860 244.158,291.200 244.147 C 290.540 244.136,289.460 244.310,288.800 244.535 M301.609 245.276 C 308.183 247.297,313.132 252.662,314.451 259.200 L 315.016 262.000 315.108 259.523 C 315.300 254.359,308.659 246.524,302.684 244.865 C 298.224 243.627,297.340 243.964,301.609 245.276 M85.214 249.585 C 80.968 253.934,81.933 254.169,86.345 249.861 C 88.294 247.957,89.538 246.400,89.107 246.400 C 88.677 246.400,86.925 247.833,85.214 249.585 M81.170 255.248 C 78.474 259.611,81.401 271.200,86.199 275.155 C 90.552 278.744,91.237 278.138,87.021 274.427 C 82.276 270.251,81.354 267.810,81.727 260.421 C 82.045 254.119,82.019 253.875,81.170 255.248 M275.386 261.600 C 275.386 263.140,275.550 263.770,275.751 263.000 C 275.953 262.230,275.953 260.970,275.751 260.200 C 275.550 259.430,275.386 260.060,275.386 261.600 M314.337 264.999 C 314.099 266.719,314.221 267.699,314.623 267.297 C 315.009 266.911,315.196 265.561,315.039 264.297 C 314.775 262.183,314.719 262.238,314.337 264.999 M276.084 265.879 C 275.889 269.313,282.224 277.600,285.044 277.600 C 285.417 277.600,284.525 276.614,283.061 275.408 C 279.596 272.554,278.205 270.645,277.084 267.209 C 276.578 265.658,276.130 265.062,276.084 265.879 M311.600 271.462 C 310.720 272.825,308.777 274.764,307.282 275.770 C 305.787 276.777,304.964 277.600,305.454 277.600 C 306.632 277.600,311.838 272.998,312.895 271.022 C 314.261 268.469,313.327 268.787,311.600 271.462 M91.632 278.302 C 92.090 278.788,94.250 279.357,96.432 279.568 C 99.654 279.879,99.873 279.831,97.600 279.314 C 96.060 278.964,93.900 278.394,92.800 278.049 C 91.355 277.595,91.031 277.665,91.632 278.302 M105.600 278.909 L 102.000 280.009 105.131 279.633 C 106.853 279.427,108.635 278.885,109.091 278.429 C 109.547 277.973,109.758 277.647,109.560 277.704 C 109.362 277.762,107.580 278.304,105.600 278.909 M286.868 278.366 C 287.271 278.756,289.040 279.284,290.800 279.539 C 294.424 280.064,293.869 279.679,289.268 278.475 C 287.545 278.025,286.465 277.975,286.868 278.366 M300.000 278.909 L 296.400 280.009 299.531 279.633 C 301.253 279.427,303.035 278.885,303.491 278.429 C 303.947 277.973,304.158 277.647,303.960 277.704 C 303.762 277.762,301.980 278.304,300.000 278.909 " stroke="none" fill="#438eff" fill-rule="evenodd"></path><path id="path4" d="M135.499 70.388 C 129.792 72.693,129.358 80.812,134.765 84.109 C 138.699 86.508,256.671 86.404,260.616 83.999 C 263.889 82.004,265.151 79.320,264.485 75.771 C 263.400 69.990,263.498 70.010,236.517 69.913 L 212.400 69.826 235.600 70.388 C 260.981 71.003,261.735 71.104,263.079 74.053 C 265.908 80.264,262.806 83.544,253.412 84.276 C 239.041 85.394,139.331 84.876,136.439 83.668 C 131.907 81.774,130.399 76.001,133.600 72.800 C 135.516 70.884,133.024 71.103,160.400 70.442 L 182.800 69.901 160.000 69.801 C 147.460 69.746,136.434 70.011,135.499 70.388 M150.600 101.400 C 175.130 101.517,215.270 101.517,239.800 101.400 C 264.330 101.282,244.260 101.186,195.200 101.186 C 146.140 101.186,126.070 101.282,150.600 101.400 M98.362 103.403 C 93.212 106.873,92.432 109.462,88.040 137.676 C 86.698 146.299,85.600 154.189,85.600 155.210 C 85.600 158.797,86.462 156.152,87.197 150.306 C 88.499 139.960,91.306 122.745,93.312 112.813 C 94.210 108.368,96.614 105.069,100.237 103.311 C 102.087 102.414,103.023 101.662,102.318 101.640 C 101.613 101.618,99.833 102.411,98.362 103.403 M291.200 102.321 C 291.860 102.791,293.300 103.193,294.400 103.214 C 296.898 103.263,299.719 105.558,300.812 108.430 C 301.270 109.636,301.841 110.425,302.081 110.185 C 302.829 109.438,300.062 104.878,298.068 103.571 C 295.859 102.124,289.227 100.917,291.200 102.321 M302.734 113.600 C 303.424 119.141,305.756 131.608,306.176 132.000 C 306.987 132.756,304.358 116.409,303.089 112.800 C 302.492 111.102,302.438 111.222,302.734 113.600 M306.403 134.467 C 306.404 135.530,306.915 139.460,307.538 143.200 C 308.161 146.940,308.907 151.743,309.195 153.873 C 309.484 156.004,309.896 157.571,310.110 157.356 C 310.520 156.947,307.261 133.445,306.715 132.867 C 306.542 132.683,306.401 133.403,306.403 134.467 M83.781 167.200 C 81.950 180.274,81.248 187.717,81.903 187.118 C 82.193 186.853,82.763 183.433,83.170 179.518 C 83.576 175.603,84.312 169.767,84.803 166.548 C 85.295 163.329,85.582 159.909,85.440 158.948 C 85.298 157.987,84.552 161.700,83.781 167.200 M310.538 160.800 C 310.503 162.340,310.955 165.940,311.542 168.800 C 312.928 175.554,313.013 171.794,311.651 164.000 C 310.979 160.160,310.579 159.008,310.538 160.800 M312.948 177.200 C 312.929 178.960,313.222 181.120,313.600 182.000 L 314.288 183.600 314.298 182.000 C 314.303 181.120,314.010 178.960,313.646 177.200 L 312.984 174.000 312.948 177.200 M313.333 190.933 C 313.040 191.227,312.800 192.118,312.800 192.915 C 312.800 195.475,309.258 196.922,301.422 197.564 L 294.000 198.172 300.400 198.285 C 307.825 198.416,311.770 196.923,313.472 193.339 C 314.508 191.157,314.432 189.835,313.333 190.933 M81.600 192.566 C 81.600 195.376,86.556 197.953,92.227 198.091 C 95.402 198.169,96.560 198.088,94.800 197.911 C 87.848 197.213,86.073 196.619,83.863 194.253 C 82.618 192.921,81.600 192.162,81.600 192.566 M153.800 199.000 C 170.410 199.120,197.590 199.120,214.200 199.000 C 230.810 198.879,217.220 198.780,184.000 198.780 C 150.780 198.780,137.190 198.879,153.800 199.000 M94.880 244.709 C 94.020 245.046,96.196 245.305,99.889 245.305 C 103.479 245.305,105.964 245.017,105.409 244.665 C 104.158 243.871,96.939 243.901,94.880 244.709 M290.800 244.760 C 289.780 245.173,291.374 245.401,295.200 245.388 C 298.948 245.376,300.600 245.133,299.600 244.740 C 297.523 243.925,292.837 243.936,290.800 244.760 M88.114 248.221 C 83.913 251.545,78.888 259.370,82.314 257.253 C 82.801 256.952,83.200 256.082,83.200 255.319 C 83.200 253.762,89.529 247.200,91.030 247.200 C 91.564 247.200,92.000 246.840,92.000 246.400 C 92.000 245.227,91.746 245.346,88.114 248.221 M302.800 246.400 C 303.072 246.840,303.827 247.200,304.477 247.200 C 305.128 247.200,307.349 248.910,309.415 251.000 C 311.480 253.090,312.599 253.900,311.902 252.800 C 311.206 251.700,309.115 249.630,307.256 248.200 C 303.958 245.663,301.808 244.795,302.800 246.400 M113.800 249.992 C 115.450 251.683,116.800 253.547,116.800 254.133 C 116.800 254.720,117.180 255.200,117.645 255.200 C 119.029 255.200,115.791 250.380,113.200 248.583 C 111.079 247.112,111.149 247.275,113.800 249.992 M280.676 250.434 C 278.984 252.212,277.621 254.102,277.647 254.634 C 277.673 255.165,278.123 254.913,278.647 254.074 C 279.171 253.235,280.845 251.345,282.367 249.874 C 283.888 248.403,284.823 247.200,284.443 247.200 C 284.063 247.200,282.368 248.655,280.676 250.434 M276.486 257.265 C 275.843 258.941,275.964 264.024,276.692 265.871 C 277.014 266.690,277.271 264.830,277.271 261.671 C 277.271 255.580,277.227 255.334,276.486 257.265 M118.618 262.000 C 118.618 265.572,118.848 267.021,119.253 266.000 C 119.602 265.120,119.888 263.320,119.888 262.000 C 119.888 260.680,119.602 258.880,119.253 258.000 C 118.848 256.979,118.618 258.428,118.618 262.000 M312.896 267.318 C 311.687 270.971,307.910 274.985,304.237 276.520 C 302.692 277.165,301.613 277.879,301.839 278.106 C 304.093 280.360,315.321 268.743,314.177 265.340 C 314.004 264.823,313.427 265.713,312.896 267.318 M81.657 266.482 C 81.575 268.320,84.737 272.689,88.000 275.246 C 91.024 277.617,95.001 279.220,94.053 277.686 C 93.752 277.199,92.889 276.800,92.135 276.800 C 89.909 276.800,84.737 271.995,83.168 268.469 C 82.368 266.671,81.688 265.777,81.657 266.482 M116.421 270.359 C 115.177 272.765,111.212 276.134,108.485 277.101 C 107.653 277.396,107.169 277.836,107.411 278.078 C 108.686 279.352,118.400 271.149,118.400 268.798 C 118.400 267.372,117.667 267.951,116.421 270.359 M277.631 269.200 C 277.659 270.188,280.723 273.945,281.148 273.513 C 281.318 273.341,280.591 272.120,279.532 270.800 C 278.474 269.480,277.618 268.760,277.631 269.200 M282.793 275.188 C 283.447 276.247,288.036 278.631,288.509 278.158 C 288.707 277.960,287.387 277.025,285.577 276.081 C 283.766 275.138,282.513 274.736,282.793 275.188 M98.042 279.219 C 99.825 279.573,102.525 279.570,104.042 279.213 C 106.246 278.694,105.596 278.565,100.800 278.570 C 95.610 278.575,95.238 278.662,98.042 279.219 M292.524 279.275 C 294.036 279.713,296.282 279.717,298.124 279.284 C 300.914 278.628,300.680 278.560,295.600 278.553 C 290.919 278.546,290.414 278.664,292.524 279.275 " stroke="none" fill="#bed8fe" fill-rule="evenodd"></path></g></svg>